<?xml version="1.0" encoding="UTF-8" standalone="no"?>
<!DOCTYPE svg PUBLIC "-//W3C//DTD SVG 1.1//EN" "http://www.w3.org/Graphics/SVG/1.1/DTD/svg11.dtd">

<!-- Created with Vectornator (http://vectornator.io/) -->
<svg height="100%" stroke-miterlimit="10" style="fill-rule:nonzero;clip-rule:evenodd;stroke-linecap:round;stroke-linejoin:round;" version="1.1" viewBox="0 0 507 428.5" width="100%" xml:space="preserve" xmlns="http://www.w3.org/2000/svg" xmlns:vectornator="http://vectornator.io" xmlns:xlink="http://www.w3.org/1999/xlink">
<metadata>
<vectornator:setting key="IsTimeLapseWatermarkDisabled" value="false"/>
<vectornator:setting key="UndoHistoryDisabled" value="true"/>
<vectornator:setting key="VNDimensionsVisible" value="true"/>
<vectornator:setting key="VNSnapToGuides" value="true"/>
<vectornator:setting key="WDCMYKEnabledKey" value="false"/>
<vectornator:setting key="WDDisplayWhiteBackground" value="false"/>
<vectornator:setting key="WDDynamicGuides" value="false"/>
<vectornator:setting key="WDGuidesVisible" value="true"/>
<vectornator:setting key="WDIsolateActiveLayer" value="false"/>
<vectornator:setting key="WDOutlineMode" value="false"/>
<vectornator:setting key="WDRulersVisible" value="true"/>
<vectornator:setting key="WDSnapToEdges" value="false"/>
<vectornator:setting key="WDSnapToGrid" value="false"/>
<vectornator:setting key="WDSnapToPoints" value="false"/>
<vectornator:setting key="WDUnits" value="Pixels"/>
</metadata>
<defs/>
<g id="Layer-2" vectornator:layerName="Layer 2"/>
<g id="Layer-5" vectornator:layerName="Layer 5"/>
<g id="Layer-12" vectornator:layerName="Layer 12"/>
<g id="Layer-10" vectornator:layerName="Layer 10"/>
<g id="Layer-8" vectornator:layerName="Layer 8"/>
<g id="Layer-11" vectornator:layerName="Layer 11"/>
<g id="Layer-7" vectornator:layerName="Layer 7"/>
<g id="Layer-3" vectornator:layerName="Layer 3"/>
<g id="Layer-4" vectornator:layerName="Layer 4"/>
<g id="Layer-6" vectornator:layerName="Layer 6"/>
<g id="Layer-9" vectornator:layerName="Layer 9">
<g opacity="1">
<path d="M308.573 328.221L329.46 326.016" fill="none" fill-rule="evenodd" opacity="1" stroke="#000000" stroke-linecap="round" stroke-linejoin="round" stroke-width="6.35807"/>
<path d="M355.294 314.444L371.783 301.769" fill="none" fill-rule="evenodd" opacity="1" stroke="#000000" stroke-linecap="round" stroke-linejoin="round" stroke-width="6.35807"/>
<path d="M385.616 277.868L386.828 257.314" fill="none" fill-rule="evenodd" opacity="1" stroke="#000000" stroke-linecap="round" stroke-linejoin="round" stroke-width="6.35807"/>
<path d="M376.181 234.539L365.737 220.211" fill="none" fill-rule="evenodd" opacity="1" stroke="#000000" stroke-linecap="round" stroke-linejoin="round" stroke-width="6.35807"/>
<path d="M339.903 209.741L319.566 208.088" fill="none" fill-rule="evenodd" opacity="1" stroke="#000000" stroke-linecap="round" stroke-linejoin="round" stroke-width="6.35807"/>
<path d="M281.64 215.803L266.8 220.762" fill="none" fill-rule="evenodd" opacity="1" stroke="#000000" stroke-linecap="round" stroke-linejoin="round" stroke-width="6.35807"/>
<path d="M228.874 231.784L206.338 232.886" fill="none" fill-rule="evenodd" opacity="1" stroke="#000000" stroke-linecap="round" stroke-linejoin="round" stroke-width="6.35807"/>
<path d="M170.061 231.784L154.67 223.518" fill="none" fill-rule="evenodd" opacity="1" stroke="#000000" stroke-linecap="round" stroke-linejoin="round" stroke-width="6.35807"/>
<path d="M129.936 204.781L118.943 194.311" fill="none" fill-rule="evenodd" opacity="1" stroke="#000000" stroke-linecap="round" stroke-linejoin="round" stroke-width="6.35807"/>
<path d="M214.601 253.627L185.761 281.132L229.973 317.75L178.704 355.395L209.08 386.522L247.012 334.282L276.04 382.688L315.388 363.903L266.8 319.955L317.493 288.489L287.981 261.265L249.211 302.32L214.601 253.627Z" fill="#ff0000" fill-rule="evenodd" opacity="1" stroke="none"/>
<path d="M394.928 170.364L499.987 119.272C499.987 119.272 398.638 72.2176 376.789 83.7668C354.941 95.316 407.55 126.622 407.55 126.622L394.928 170.364Z" fill="#dbebff" fill-rule="evenodd" opacity="1" stroke="none"/>
<path d="M255.711 189.109L427.005 146.223C427.005 146.223 397.656 44.7737 380.139 36.889C362.622 29.0042 238.127 55.6709 238.127 55.6709L255.711 189.109Z" fill="#c4dfff" fill-rule="evenodd" opacity="1" stroke="none"/>
<path d="M425.13 146.043L395.221 169.59L384.821 155.018L425.13 146.043Z" fill="#a5ccfc" fill-rule="evenodd" opacity="1" stroke="none"/>
<path d="M301.157 162.75L255.293 190.125L248.647 168.148L301.157 162.75Z" fill="#a5ccfc" fill-rule="evenodd" opacity="1" stroke="none"/>
<path d="M23.6755 44.6986C66.7255 27.7582 223.811 7.87968 251.387 13.6839C278.963 19.4882 301.31 93.6068 301.981 100.696C302.653 107.786 306.978 152.277 303.093 160.857C299.207 169.437 98.8584 180.658 88.5605 202.197" fill="#bbdaff" fill-rule="evenodd" opacity="1" stroke="none"/>
<path d="M-28.6522-29.375L111.895 335.978" fill="none" fill-rule="evenodd" opacity="1" stroke="none"/>
<path d="M9.97568 31.531L165.681 414.592C165.681 414.592 182.325 426.232 182.32 408.242C182.315 390.252 25.6464 24.3229 25.6464 24.3229C25.6464 24.3229 7.25117 8.018 9.97568 31.531Z" fill="#ffb179" fill-rule="evenodd" opacity="1" stroke="none"/>
<path d="M115.651 96.6569C115.651 65.1287 141.854 39.57 174.177 39.57C206.5 39.57 232.703 65.1287 232.703 96.6569C232.703 128.185 206.5 153.744 174.177 153.744C141.854 153.744 115.651 128.185 115.651 96.6569Z" fill="#009fff" fill-rule="evenodd" opacity="1" stroke="none"/>
<path d="M189.668 41.8785C196.7 41.3479 203.186 46.0662 208.478 49.9799C215.34 55.0555 223.485 62.0699 227.601 69.5738C230.094 74.1176 230.58 79.9487 231.339 84.9867C232.24 90.9705 235.062 102.668 228.536 106.36C224.585 108.596 216.718 107.044 214.363 103.179C211.902 99.1398 212.058 94.4205 212.838 89.9172C213.266 87.4488 214.553 83.974 213.465 81.5371C212.194 78.6882 203.979 76.5266 201.158 74.286C198.784 72.4004 199.511 69.2549 198.259 66.7947C196.73 63.7886 194.1 62.5882 192.884 59.323C192.305 57.7673 192.256 53.9916 190.985 52.9823C188.555 51.0519 184.466 52.2209 182.877 48.5282C180.786 43.6675 186.279 42.1341 189.668 41.8785Z" fill="#00ff79" fill-rule="evenodd" opacity="1" stroke="none"/>
<path d="M124.963 65.5794C114.178 77.7182 112.732 96.6685 116.788 112.028C117.979 116.538 118.839 119.642 122.127 123.144C122.422 123.458 123.719 125.362 124.453 125.335C127.698 125.219 127.452 117.996 132.965 120.085C134.496 120.666 136.279 121.32 137.562 122.367C140.039 124.388 142.309 132.08 147.034 129.655C148.935 128.68 150.525 126.63 150.876 124.562C151.171 122.824 151.441 120.251 150.749 118.58C149.104 114.61 142.55 110.474 145.036 105.396C145.716 104.008 147.297 102.789 148.194 101.507C153.111 94.4803 159.295 88.8251 162.713 80.7334C164.167 77.2892 165.065 71.7425 160.174 70.1394C152.963 67.7759 147.061 79.4895 141.238 77.7578C137.802 76.7357 139.014 73.0981 137.958 70.9665C137.116 69.267 135.241 70.1881 134.177 68.7631C133.782 68.2337 133.673 66.4006 133.082 65.9594C132.738 65.7031 130.522 65.8176 130.154 65.7745C129.154 65.6572 128.31 64.7341 127.304 64.7715C126.48 64.8022 125.512 64.9615 124.963 65.5794Z" fill="#00ff79" fill-rule="evenodd" opacity="1" stroke="none"/>
<path d="M143.917 47.6367C142.888 50.0055 147.49 53.2315 149.793 53.7967C151.675 54.2584 154.344 54.0587 155.945 55.2211C159.005 57.4435 164.304 67.1034 168.227 65.4762C169.411 64.985 169.639 63.8651 170.501 63.0458C171.109 62.4679 171.492 62.4886 171.834 61.713C173.18 58.6562 169.688 55.0869 169.528 52.0971C169.322 48.2578 176.49 46.6243 173.819 41.8542C171.716 38.0984 168.045 39.7051 164.731 39.7815C160.272 39.8843 157.489 41.4491 153.391 42.9762C150.424 44.082 145.248 44.5732 143.917 47.6367Z" fill="#00ff79" fill-rule="evenodd" opacity="1" stroke="none"/>
<path d="M152.145 149.106C148.108 140.397 164.897 145.032 168.628 140.685C169.643 139.502 169.079 139.413 169.74 137.963C170.747 135.758 173.286 133.076 174.991 131.359C177.89 128.439 182.799 128.678 184.763 124.496C187.305 119.082 182.592 110.422 192.727 109.548C201.583 108.785 205.409 119.187 208.795 125.297C210.209 127.848 212.877 129.325 213.913 132.167C217 140.629 208.464 143.926 202.905 147.392C199.369 149.596 194.504 152.075 190.365 152.854C187.533 153.387 184.759 153.182 181.945 153.551C178.688 153.978 175.773 155.354 172.35 155.06C169.569 154.821 166.822 153.883 164.099 153.508C160.335 152.991 153.803 152.682 152.145 149.106Z" fill="#00ff79" fill-rule="evenodd" opacity="1" stroke="none"/>
</g>
</g>
</svg>
